<svg width="41" height="41" viewBox="0 0 41 41" fill="none" xmlns="http://www.w3.org/2000/svg">
<path d="M20.5 0.127197C15.2793 0.127197 10.0586 2.11325 6.08594 6.08591C-1.85937 14.0312 -1.85937 26.9687 6.08594 34.914C10.0586 38.8867 15.2969 40.8906 20.5 40.8906C25.7031 40.8906 30.9414 38.8867 34.9141 34.914C42.8594 26.9687 42.8594 14.0312 34.9141 6.08591C30.9414 2.11325 25.7207 0.127197 20.5 0.127197ZM20.5 2.21872C25.1758 2.21872 29.8518 4.01141 33.4378 7.56219C40.5393 14.6989 40.5393 26.301 33.4378 33.4377C26.3011 40.5745 14.6995 40.5745 7.59793 33.4377C0.461213 26.301 0.460663 14.6989 7.56223 7.56219C11.1482 4.01141 15.8242 2.21872 20.5 2.21872ZM20.5 12.7656C19.9023 12.7656 19.4453 13.2226 19.4453 13.8203V19.4453H13.8203C13.2227 19.4453 12.7656 19.9023 12.7656 20.5C12.7656 21.0976 13.2227 21.5547 13.8203 21.5547H19.4453V27.1797C19.4453 27.7773 19.9023 28.2343 20.5 28.2343C21.0977 28.2343 21.5547 27.7773 21.5547 27.1797V21.5547H27.1797C27.7773 21.5547 28.2344 21.0976 28.2344 20.5C28.2344 19.9023 27.7773 19.4453 27.1797 19.4453H21.5547V13.8203C21.5547 13.2226 21.0977 12.7656 20.5 12.7656Z" fill="#FF3773"/>
</svg>
